#!OML:ASF H:\Terrain\Patient Classification 1\Walking\steve\steve.ASF
:FULLY-SPECIFIED
:DEGREES
241
root 8.79819 16.0889 8.33142 11.1048 0.214574 2.99517
lowerback 2.52971 -0.146741 1.67341
upperback -2.8997 -0.00826683 2.76328
thorax -4.41256 -0.0094846 1.91765
lowerneck -11.3313 -0.192971 -0.148983
upperneck 11.4288 0.151893 -2.86926
head 5.30496 -0.134876 -0.860963
rclavicle 3.97569e-015 1.27222e-014
rhumerus -44.6003 -0.47112 -79.5947
rradius 36.8833
rwrist -3.50552
rhand -24.5199 -31.7352
rfingers 7.12502
rthumb 1.9753 -61.7058
lclavicle 3.97569e-015 1.27222e-014
lhumerus -26.4176 -3.64747 90.5702
lradius 21.7106
lwrist -6.47806
lhand -23.3192 -21.7731
lfingers 7.12502
lthumb 3.1348 8.18362
rfemur -40.0801 1.22782 22.2813
rtibia 50.1325
rfoot -19.5362 8.03925
rtoes 1.52014
lfemur -5.46948 4.14249 -23.3913
ltibia 52.5713
lfoot 0.209507 -3.2126
ltoes -17.5766
242
root 8.79115 16.134 8.49956 10.8527 0.289506 2.69812
lowerback 2.47414 -0.076552 1.99296
upperback -2.75988 0.0950582 2.80991
thorax -4.23774 0.0329394 1.77855
lowerneck -11.0796 -0.163165 -0.195023
upperneck 11.37 0.202418 -2.91925
head 5.24519 -0.113094 -0.864193
rclavicle 1.74931e-014 -4.77083e-015
rhumerus -43.898 0.595393 -80.4008
rradius 37.9735
rwrist -4.48076
rhand -24.6962 -32.3236
rfingers 7.12502
rthumb 1.80501 -62.2957
lclavicle 1.74931e-014 -4.77083e-015
lhumerus -27.3754 -2.91458 90.4281
lradius 21.358
lwrist -6.94333
lhand -22.7157 -21.2037
lfingers 7.12502
lthumb 3.71765 8.74363
rfemur -38.7352 1.38129 22.624
rtibia 49.6041
rfoot -19.7505 8.04654
rtoes 3.0097
lfemur -6.72208 4.34289 -23.0073
ltibia 53.2682
lfoot -0.945685 -3.56341
ltoes -14.5462
243
root 8.78777 16.1818 8.67185 10.7406 0.112612 2.67526
lowerback 2.3341 0.0670377 2.03206
upperback -2.74773 0.281085 2.76716
thorax -4.14814 0.123859 1.70056
lowerneck -11.0197 -0.192654 -0.243951
upperneck 11.6926 0.184748 -2.96479
head 5.33552 -0.130062 -0.872977
rclavicle -6.55989e-015 0
rhumerus -43.4162 1.42756 -80.7899
rradius 39.2737
rwrist -3.65164
rhand -22.6847 -33.5264
rfingers 7.12502
rthumb 3.7476 -63.4732
lclavicle -6.55989e-015 0
lhumerus -28.5043 -2.08898 90.2827
lradius 21.0618
lwrist -7.24448
lhand -21.4215 -19.9553
lfingers 7.12502
lthumb 4.9674 9.9665
rfemur -37.5758 1.50022 22.6458
rtibia 48.991
rfoot -19.9051 8.25892
rtoes 3.54159
lfemur -8.09731 4.80982 -23.0184
ltibia 53.8572
lfoot -2.21667 -4.0056
ltoes -16.2989
244
root 8.78923 16.224 8.83787 10.9414 -0.480393 2.61255
lowerback 2.02847 0.340192 2.08995
upperback -2.84742 0.636551 2.67789
thorax -4.08178 0.297652 1.55622
lowerneck -10.8933 -0.203615 -0.382364
upperneck 11.8806 0.16187 -2.71393
head 5.37219 -0.130713 -0.77405
rclavicle 1.19271e-014 0
rhumerus -42.7194 2.18109 -81.2915
rradius 40.0381
rwrist -3.72244
rhand -22.0755 -33.8416
rfingers 7.12502
rthumb 4.3359 -63.7772
lclavicle 1.19271e-014 0
lhumerus -29.528 -2.05192 90.2181
lradius 20.8182
lwrist -6.96371
lhand -21.4516 -19.7772
lfingers 7.12502
lthumb 4.93826 10.1452
rfemur -36.8246 1.60267 22.703
rtibia 48.2624
rfoot -20.0297 8.63697
rtoes 2.34059
lfemur -9.83009 5.6778 -23.1856
ltibia 54.4181
lfoot -3.86404 -4.34799
ltoes -20.0235
245
root 8.78631 16.258 9.00449 11.0815 -0.900832 2.42505
lowerback 1.76815 0.561924 2.30269
upperback -2.96129 0.931751 2.60199
thorax -4.05161 0.436752 1.34452
lowerneck -10.5942 -0.209143 -0.584456
upperneck 11.9835 0.141811 -2.39316
head 5.35317 -0.125942 -0.641831
rclavicle -1.58034e-014 -2.54444e-014
rhumerus -42.0222 3.31409 -82.2889
rradius 40.5247
rwrist -6.6067
rhand -23.7423 -33.6914
rfingers 7.12502
rthumb 2.72628 -63.6537
lclavicle -1.58034e-014 -2.54444e-014
lhumerus -30.7616 -2.35994 90.1193
lradius 20.9847
lwrist -6.59319
lhand -22.7108 -21.2393
lfingers 7.12502
lthumb 3.72241 8.70795
rfemur -36.0457 1.66611 22.9301
rtibia 47.6274
rfoot -20.1871 9.0997
rtoes 1.85967
lfemur -11.4647 6.21945 -23.195
ltibia 54.8214
lfoot -5.58358 -4.31873
ltoes -20.3844
